<?xml version="1.0" encoding="UTF-8" standalone="no"?>
<!-- Created with Inkscape (http://www.inkscape.org/) -->

<svg
   xmlns:dc="http://purl.org/dc/elements/1.1/"
   xmlns:cc="http://creativecommons.org/ns#"
   xmlns:rdf="http://www.w3.org/1999/02/22-rdf-syntax-ns#"
   xmlns:svg="http://www.w3.org/2000/svg"
   xmlns="http://www.w3.org/2000/svg"
   xmlns:sodipodi="http://sodipodi.sourceforge.net/DTD/sodipodi-0.dtd"
   xmlns:inkscape="http://www.inkscape.org/namespaces/inkscape"
   width="297mm"
   height="210mm"
   viewBox="0 0 297 210"
   id="svg3371"
   version="1.1"
   inkscape:version="0.92.3 (2405546, 2018-03-11)"
   sodipodi:docname="Bacia do Amazonas.svg"
   enable-background="new"
   inkscape:export-filename="/home/vimana/Documentos/Poco/amazonas.png"
   inkscape:export-xdpi="600"
   inkscape:export-ydpi="600">
  <defs
     id="defs3373" />
  <sodipodi:namedview
     inkscape:document-units="mm"
     pagecolor="#ffffff"
     bordercolor="#666666"
     borderopacity="1.0"
     inkscape:pageopacity="0.0"
     inkscape:pageshadow="2"
     inkscape:zoom="0.1767767"
     inkscape:cx="1742.2013"
     inkscape:cy="832.49898"
     inkscape:current-layer="g184"
     id="namedview3375"
     showgrid="false"
     showguides="true"
     inkscape:window-width="1920"
     inkscape:window-height="1020"
     inkscape:window-x="0"
     inkscape:window-y="28"
     inkscape:window-maximized="1"
     inkscape:guide-bbox="true" />
  <metadata
     id="metadata3377">
    <rdf:RDF>
      <cc:Work
         rdf:about="">
        <dc:format>image/svg+xml</dc:format>
        <dc:type
           rdf:resource="http://purl.org/dc/dcmitype/StillImage" />
        <dc:title />
      </cc:Work>
    </rdf:RDF>
  </metadata>
  <g
     inkscape:groupmode="layer"
     id="layer3"
     inkscape:label="Preenchimento"
     style="display:inline;opacity:1">
    <g
       style="display:inline;opacity:1"
       id="g4307"
       transform="matrix(81.429328,0,0,58.16917,1600.6366,-1909.3948)">
      <g
         id="g151"
         transform="matrix(0.01472831,0,0,0.02411655,-19.354755,32.629765)"
         inkscape:export-xdpi="100"
         inkscape:export-ydpi="100">
        <g
           id="g184"
           inkscape:export-xdpi="100"
           inkscape:export-ydpi="100">
          <rect
             rx="2.0574248"
             y="51.369827"
             x="-12.817858"
             height="104.87752"
             width="362.17896"
             id="rect4304"
             style="opacity:1;fill:#ffffff;fill-opacity:1;fill-rule:evenodd;stroke:#ffffff;stroke-width:0.34605771;stroke-linecap:square;stroke-linejoin:round;stroke-miterlimit:4;stroke-dasharray:none;stroke-dashoffset:0;stroke-opacity:1"
             inkscape:export-xdpi="100"
             inkscape:export-ydpi="100" />
          <path
             inkscape:export-ydpi="100"
             inkscape:export-xdpi="100"
             inkscape:connector-curvature="0"
             id="path4244"
             d="m -68.498626,278.6707 c 0,-12.84742 6.9149,-8.93301 9.469631,-8.29181 1.485416,0.37282 10.056894,3.14306 14.430514,2.21655 4.373621,-0.92656 15.419892,-3.66191 23.209444,-4.38274 4.692788,-0.43425 8.72508,0.6674 14.109061,0.0409 25.548335,-2.97309 44.567419,-4.52379 72.555215,-5.24486 22.658299,-0.58376 33.457253,1.11375 35.808581,-0.0876 2.78749,-1.42421 4.96596,-3.31847 4.96596,-1.7503 0,5.3906 10.3299,114.86407 14.82515,148.65318 4.57568,34.39364 19.90785,119.79914 21.85639,121.74769 0.3123,0.3123 0.79889,0.33676 1.0813,0.0543 0.28241,-0.2824 -4.32403,-18.46864 -8.74402,-40.93619 -5.37601,-27.32712 -10.71585,-54.81361 -14.48543,-83.31882 -6.20486,-46.92062 -8.18417,-82.06435 -8.18417,-82.06435 -5.4349,-35.02244 4.58452,-9.58545 8.78776,-9.07949 4.62316,0.55658 14.69784,0.0502 26.74879,-0.84564 10.95635,-0.81443 36.22544,-5.32955 51.42727,-5.50675 32.03919,-0.37344 40.08529,3.2551 69.9049,13.27561 11.57201,3.88863 17.7136,8.51444 21.81039,8.51444 8.19236,0 29.51396,-14.86181 29.51396,-12.14658 0,10.58298 -17.3095,85.07831 -25.23379,106.85054 -1.19512,3.28364 -3.92728,8.87826 -4.66432,12.67871 -4.0608,20.93925 -14.19928,49.80079 -27.15783,71.82831 -3.09964,5.26891 -6.13973,8.67906 -5.76072,9.05805 0.9173,0.91731 0.75851,1.13482 7.34346,-10.05967 10.71696,-18.21894 18.70514,-43.76521 23.17387,-61.95156 2.25679,-9.18444 7.18618,-18.52023 8.74654,-23.2708 1.56035,-4.75057 3.66731,-21.29059 7.49645,-34.9089 5.91829,-21.04841 9.78642,-27.21436 12.74488,-49.69517 1.91411,-14.54506 2.65984,-28.9494 2.88845,-29.17799 0.22859,-0.22859 5.30657,1.68688 8.38218,2.77925 5.43806,1.93141 4.71711,0.80287 17.02197,-1.85312 6.95928,-1.50215 17.20182,-2.3433 21.00228,-2.36168 10.22589,-0.0494 32.20405,1.80054 43.98727,4.42521 6.86082,1.52823 13.58314,2.70896 21.98524,2.71661 11.47962,0.0104 12.55585,-1.38499 15.01156,-3.69202 2.67387,-2.51196 7.82932,-3.37964 20.75101,-1.89128 7.19667,0.82893 15.51378,1.64361 20.06554,1.31793 8.01019,-0.57313 11.09196,3.5058 9.2167,5.57795 -3.5817,3.95772 -6.61798,8.77035 -2.5759,22.436 4.25506,14.38569 3.4534,22.0075 8.21816,22.0075 3.929,0 5.47609,-5.24788 13.903,-17.9083 8.65004,-12.99563 10.38988,-19.13535 6.33665,-29.07723 -0.61979,-1.52028 8.95689,-3.02668 54.24578,-1.37791 l 52.6565,-3.11525 3.10678,8.75197 c 1.31279,3.69821 0.70742,4.81421 -0.52473,17.14264 -1.19542,11.96104 -0.53043,11.57172 1.08792,13.19007 1.41611,1.41611 -1.79997,0.96331 0,0 4.42181,-2.36649 16.58534,-32.79391 16.58534,-39.69071 0,-2.7629 2.33654,-0.16837 21.84694,-2.83165 8.77333,-1.19762 17.04616,-1.01777 17.60819,-0.39442 0.51902,0.57565 1.86237,11.59201 4.22898,22.04326 2.3666,10.45126 8.95615,23.79668 11.40971,31.39759 2.45354,7.60091 4.1748,25.35014 7.05877,37.70162 7.57668,32.44938 13.85769,55.67357 15.17584,56.11295 0.62997,0.20999 -2.56946,-8.51459 -5.35092,-19.14171 -2.78145,-10.62714 -7.60861,-27.15339 -9.82492,-36.97124 -2.2163,-9.81784 -3.92289,-24.43253 -6.45348,-32.47707 -4.75683,-15.12161 -15.04706,-49.67738 -14.35552,-50.36891 0.59206,-0.59205 65.88289,-2.10607 83.68278,-5.47183 8.55103,-1.61688 22.60299,-5.64709 32.45397,-7.10225 l 16.85575,-4.80349 37.02447,-3.01333 c 26.15217,-2.12847 36.32855,4.03717 64.28622,8.86747 8.86773,1.53209 19.15791,4.13046 22.16347,4.29676 5.4218,0.3 5.48947,4.82715 5.48109,8.82631 -0.0115,5.3265 -2.9798,36.74969 -4.47277,48.42422 -0.64803,5.06727 -1.53475,24.26426 -2.44413,38.61367 -0.90939,14.34941 -2.7229,28.67373 -3.15055,33.80166 -0.49472,5.93208 -2.37592,9.92789 -1.64755,9.92789 1.18863,0 1.8743,-7.41425 3.83421,-41.45952 0.63812,-11.08467 2.17173,-29.48233 3.40802,-40.8837 1.2363,-11.40137 2.73815,-40.96862 4.04103,-57.08699 1.30286,-16.11838 2.88294,-26.19341 3.0813,-26.39178 1.30556,-1.30556 27.75932,-2.8997 32.81501,-1.76583 l 7.19654,1.61401 -1.75183,17.19119 c -0.87645,8.60086 1.9793,31.05485 3.55457,49.74042 1.57527,18.68558 3.4539,49.26198 4.1748,67.94756 0.7208,18.68558 1.7768,35.01027 2.3465,36.27708 0.636,1.41441 -0.2394,-3.71391 -0.6492,-13.9683 -0.3671,-9.18444 -0.8315,-29.33086 -1.4052,-43.89928 -0.5737,-14.56842 -2.6744,-36.25731 -3.92191,-49.24221 -1.24747,-12.98489 -2.25668,-31.09178 -2.67801,-39.71519 l -1.32573,-17.45961 13.20715,-2.26835 c 4.9599,-0.85188 13.996,-2.24201 22.547,-4.21206 21.889,-5.04296 21.6084,-3.45316 22.4225,-0.55707 1.4653,5.21276 -7.1809,103.55866 -9.1821,125.25593 -2.9372,31.84563 -4.189,58.72885 -2.6914,57.80332 0.6298,-0.38928 -2.1206,-8.97621 -1.7147,-18.34339 0.4059,-9.36718 3.2344,-28.28881 4.5267,-42.54052 1.2923,-14.25171 3.0876,-39.65177 4.3361,-57.38723 2.4555,-34.87863 11.5656,-164.18354 11.5656,-166.85336 0,-1.33278 6.8048,-3.34686 15.3414,-2.86367 5.7517,0.32556 19.2734,-9.54077 11.3122,10.475 -0.2572,0.64668 8.074,79.96167 19.9411,172.7399 11.867,92.77824 20.633,166.91208 20.9132,167.19224 0.2802,0.28016 0.7502,0.26859 1.0446,-0.0258 0.4501,-0.45023 -14.3675,-97.99629 -16.5003,-111.12926 l -0.3598,-5.0365 9.0684,-5.84233 9.7881,5.43941 0.4659,5.22528 c 0.3749,2.37528 2.6974,29.18076 6.5511,58.951 3.8535,29.77024 4.6874,53.33541 4.9484,53.59933 1.5931,1.61109 -0.2586,-1.94856 -3.3399,-25.50731 -1.8928,-14.47038 -1.7854,-27.91512 -1.6085,-28.09202 0.1769,-0.17691 7.1009,-2.44841 15.4598,-2.26315 l 15.0364,-3.36602 6.4601,-4.75146 c 7.1194,-5.34941 10.8987,-3.66206 25.9453,-2.9308 12.7252,0.61844 23.5391,1.32058 31.8891,8.71351 l 3.8573,3.41521 0.059,38.78203 -0.059,43.18204 -14.0483,0.5214 c -6.8119,0.25283 -296.96459,-0.43834 -647.39848,-0.46763 l -643.211146,-0.0538 z"
             style="opacity:1;fill:#ffb380;fill-opacity:1;fill-rule:evenodd;stroke:#ffb380;stroke-width:1.62843812;stroke-linecap:square;stroke-linejoin:round;stroke-miterlimit:4;stroke-dasharray:none;stroke-dashoffset:0;stroke-opacity:1"
             sodipodi:nodetypes="cccasscssccssccsssssccscsscssccscsccsscssscscscscsscccscccsccscsssccscsscccscsscccscccsssscsscssscsccccccccccsccsscccsscc"
             transform="scale(0.28222222)" />
          <path
             inkscape:export-ydpi="100"
             inkscape:export-xdpi="100"
             transform="scale(0.28222222)"
             inkscape:connector-curvature="0"
             id="path4246"
             d="m 500.44041,359.06154 c -3.71308,-4.8681 -9.42235,-23.93745 -9.42235,-31.4713 0,-5.2401 0.70764,-7.34444 3.50108,-10.41139 1.60379,-1.76082 2.32633,-4.07333 15.41399,-2.9719 h 13.13454 l 2.17199,5.82209 c 3.06231,8.20863 1.42124,14.63183 -7.04406,27.23655 -10.02926,14.93347 -13.56858,17.28487 -17.75519,11.79595 z"
             style="opacity:1;fill:#aa0000;fill-opacity:1;fill-rule:evenodd;stroke:#aa0000;stroke-width:1.1514796;stroke-linecap:square;stroke-linejoin:round;stroke-miterlimit:4;stroke-dasharray:none;stroke-dashoffset:0;stroke-opacity:1"
             sodipodi:nodetypes="sssscscs" />
          <path
             inkscape:export-ydpi="100"
             inkscape:export-xdpi="100"
             transform="scale(0.28222222)"
             inkscape:connector-curvature="0"
             id="path4248"
             d="m 632.59657,349.2102 c -0.75179,-1.65 -0.75621,-3.57385 -0.0194,-8.43216 0.52505,-3.46194 1.18781,-9.09956 1.47279,-12.52807 0.47149,-5.67225 0.33401,-6.56311 -1.52653,-9.89197 l -2.14643,-7.50458 6.20678,1.3458 c 2.96598,-0.27836 6.49233,-0.12165 8.95572,-0.34818 5.97468,-0.54945 7.46027,1.72841 6.01295,5.29117 -0.59953,1.47579 -1.80597,4.88197 -2.68099,7.5693 -2.27026,6.97234 -11.34408,24.11168 -13.48996,25.48092 -1.67336,1.06773 -1.88492,0.99311 -2.78495,-0.98223 z"
             style="opacity:1;fill:#aa0000;fill-opacity:1;fill-rule:evenodd;stroke:#aa0000;stroke-width:1.1514796;stroke-linecap:square;stroke-linejoin:round;stroke-miterlimit:4;stroke-dasharray:none;stroke-dashoffset:0;stroke-opacity:1"
             sodipodi:nodetypes="ccccccccsccc" />
          <path
             inkscape:export-ydpi="100"
             inkscape:export-xdpi="100"
             transform="scale(0.28222222)"
             inkscape:connector-curvature="0"
             id="path4250"
             d="m 261.41316,252.68391 c 0,0 -0.21791,-4.52321 -0.66294,-6.86982 -0.44502,-2.34661 -1.55997,-5.37535 -2.72643,-6.90465 -1.16645,-1.5293 -3.23135,-5.63334 -4.71304,-9.2942 -1.48168,-3.66085 -3.70965,-8.61855 -4.82667,-11.01709 -1.6638,-3.57263 -1.88239,-7.06641 -1.20918,-8.99759 0.7627,-2.18787 3.46389,-5.34918 7.35792,-5.35352 6.62226,-0.007 24.80447,3.10873 26.3856,4.47843 1.75568,1.52091 29.05698,35.08548 -1.25766,18.86386 -0.63598,1.52212 -0.46481,4.94315 -2.72901,8.47283 -3.88074,6.04974 -7.04086,3.22927 -6.5975,7.02053 0.39095,3.34303 -0.54091,6.1092 -2.01311,7.97069 -1.84986,2.33901 -6.22565,2.89637 -7.00798,1.63053 z"
             style="opacity:1;fill:#aa0000;fill-opacity:1;fill-rule:evenodd;stroke:#aa0000;stroke-width:1.1514796;stroke-linecap:square;stroke-linejoin:round;stroke-miterlimit:4;stroke-dasharray:none;stroke-dashoffset:0;stroke-opacity:1"
             sodipodi:nodetypes="ccccsccscccsc" />
          <path
             inkscape:export-ydpi="100"
             inkscape:export-xdpi="100"
             transform="scale(0.28222222)"
             inkscape:connector-curvature="0"
             id="path4258"
             d="m 308.60545,335.65359 c -3.35916,-1.0424 -8.16676,-2.65291 -10.68355,-3.57891 -3.17296,-1.16744 -6.41882,-1.66727 -10.58644,-1.63023 -6.14841,0.0546 -9.28379,-0.77359 -27.64367,-7.30251 -8.68386,-3.08804 -25.15775,-6.93055 -37.43758,-8.73224 -8.38264,-1.2299 -11.94833,-1.27106 -34.98572,-0.40392 -14.10847,0.53106 -31.80757,1.48973 -39.33135,2.13039 -7.52377,0.64065 -16.10541,1.16483 -19.07033,1.16483 -5.82632,0 -15.69529,-1.43024 -16.78069,-2.4319 -0.36855,-0.34011 -2.99536,-21.76718 -5.83737,-47.6157 -2.842,-25.84852 -5.38048,-47.21052 -5.64106,-47.4711 -1.250557,-1.25055 0.23286,1.77238 2.11851,18.98757 1.11773,10.20443 2.96768,19.29745 2.96768,20.32981 0,3.27189 -7.144582,4.27932 -25.511358,4.82882 -43.799644,1.3104 -65.457664,2.59733 -82.2485412,4.88723 -4.9267691,0.6719 -12.8151408,1.22879 -17.5297168,1.23753 -9.712436,0.018 -20.128492,1.14979 -27.124859,2.9473 -3.729499,0.95819 -5.298052,0.0416 -7.532663,0.30308 l -14.245367,1.66665 c -10e-7,-8.02069 0.01,-15.39312 -10e-7,-23.09069 10e-7,-4.25288 12.86191,-0.36397 20.022186,-3.42977 12.93483,-5.53828 22.275725,-8.95773 47.2247628,-14.97675 13.4366432,-3.24163 28.0131122,-6.97722 32.3921462,-8.30132 7.199012,-2.17678 10.671203,-2.60668 36.238219,-4.48672 27.461119,-2.01933 28.605017,-2.17219 39.677122,-5.30214 9.09708,-2.57163 17.31638,-4.03402 40.67636,-7.2372 26.67607,-3.6579 31.51153,-4.08957 54.45702,-4.86141 l 25.18145,-0.84706 10.28317,2.18904 c 5.65574,1.20398 13.63771,0.69118 13.7577,0.77566 0.11997,0.0845 -3.59222,2.78285 -4.26929,4.08118 -1.69519,3.25056 -1.66374,3.43196 2.06781,11.928 1.8199,4.14358 3.90176,8.93174 4.62636,10.64036 0.7246,1.70862 2.53368,4.99435 4.02017,7.30162 1.53732,2.38615 2.70488,5.2603 2.70773,6.66552 0.002,1.35877 0.53753,3.49138 1.18837,4.73914 0.96881,1.85734 3.75112,2.59451 2.99883,6.3404 -1.77693,8.84802 3.28244,26.80205 11.38245,41.1426 6.07758,10.75995 8.85559,17.40314 8.85559,14.28057 0,-0.38938 -1.41743,-2.49649 -3.14985,-4.68246 -14.3758,-18.13941 -23.30894,-50.03759 -15.53753,-55.48089 2.5996,-1.82084 4.12131,-5.6511 3.92803,-9.88713 -0.16065,-3.52082 0.30546,-4.67696 4.64378,-11.51836 4.67053,-7.36528 4.82235,-7.77933 4.82235,-13.15114 0,-4.90202 -0.63465,-6.82875 0.73036,-6.83053 3.90189,-0.005 30.86708,3.03262 34.14517,5.75319 0.78423,0.65085 -2.31339,8.33112 -3.26063,10.22991 -0.97571,1.95586 -1.03859,3.20692 -0.32772,6.52154 1.28205,5.978 2.86398,8.57278 9.60069,15.7476 3.32279,3.53888 5.67739,6.65933 5.23245,6.93432 -0.44495,0.27499 -0.0105,5.94993 -0.52712,10.86987 -0.5166,4.91994 -2.70386,11.52702 -2.87056,12.07075 -0.19992,0.65202 -2.19592,-3.78368 -6.6512,-6.1295 -4.70843,-2.47913 -8.58414,-3.85634 -12.7918,-4.54552 -3.32016,-0.54381 -8.53416,-1.86132 -11.58666,-2.92781 -9.20354,-3.21552 -16.17779,-2.69241 -16.16881,1.21276 0.002,0.72896 0.69614,2.462 1.54325,3.8512 1.74616,2.86356 7.51,5.48003 18.71503,8.4956 6.85471,1.84479 12.29186,5.25405 22.30674,13.98701 l 3.42514,0.88643 -2.41233,18.89396 c -3.05576,23.93343 -3.01308,24.84405 -3.57945,24.78208 -0.27821,-0.0305 -3.25425,-0.90822 -6.61341,-1.95061 z"
             style="opacity:1;fill:#ff6600;fill-opacity:1;fill-rule:evenodd;stroke:#ff6600;stroke-width:1.1514796;stroke-linecap:square;stroke-linejoin:round;stroke-miterlimit:4;stroke-dasharray:none;stroke-dashoffset:0;stroke-opacity:1"
             sodipodi:nodetypes="cccssssscscsssssssccsssssssccccssccccsssccssccscsccccccccsccscc" />
          <path
             inkscape:export-ydpi="100"
             inkscape:export-xdpi="100"
             transform="scale(0.28222222)"
             inkscape:connector-curvature="0"
             id="path4260"
             d="m 421.39182,316.74444 c -1.34367,-0.17189 -6.69968,-1.20509 -11.90225,-2.296 -5.20258,-1.09091 -15.03462,-2.5655 -21.84899,-3.27687 -6.81437,-0.71137 -15.05588,-1.59239 -18.31447,-1.95782 -6.45813,-0.72425 -9.36369,-0.37541 -22.85376,2.74385 -11.03609,2.55184 -14.97122,2.59694 -21.14299,0.25376 -4.78758,-1.81766 -6.83765,-2.66083 -6.44079,-5.48831 0.22004,-1.5676 2.38173,-13.13965 3.81868,-26.35235 1.43695,-13.2127 2.79556,-24.48775 2.94886,-24.66521 0.1533,-0.17746 3.26053,1.77004 5.23396,3.58909 4.54537,4.18977 7.0793,5.48628 13.74291,7.03168 2.94465,0.68291 9.45907,2.56876 14.47648,4.19078 8.06908,2.60856 9.79401,3.51512 14.93675,7.85018 7.18919,6.06012 11.48302,8.56823 22.91535,13.38528 13.72098,5.78138 47.94347,21.46498 48.86052,22.39196 0.54452,0.55042 0.29059,1.20972 -0.7664,1.98985 -1.19087,0.87894 -4.00275,1.1366 -11.40079,1.04467 -5.40103,-0.0671 -10.91941,-0.26265 -12.26307,-0.43454 z"
             style="opacity:1;fill:#ff6600;fill-opacity:1;fill-rule:evenodd;stroke:#ff6600;stroke-width:1.1514796;stroke-linecap:square;stroke-linejoin:round;stroke-miterlimit:4;stroke-dasharray:none;stroke-dashoffset:0;stroke-opacity:1"
             sodipodi:nodetypes="ssscsscsscsssscccs" />
          <path
             inkscape:export-ydpi="100"
             inkscape:export-xdpi="100"
             transform="scale(0.28222222)"
             inkscape:connector-curvature="0"
             id="path4264"
             d="m 693.80852,318.22228 c -0.97102,-4.31375 -2.90984,-9.89682 -3.12692,-10.6657 -0.49318,-1.74685 0.34698,-1.72142 20.2088,-3.86551 14.02452,-1.51395 87.57722,-4.92686 101.63973,-4.76299 l 9.00742,0.12813 -9.66874,2.41474 c -2.46339,0.62296 -18.77059,4.05615 -36.23822,7.62931 -25.07177,5.12865 -70.57063,14.75404 -78.70954,16.65117 -1.09618,0.25552 -1.67584,-1.14665 -3.11253,-7.52915 z"
             style="opacity:1;fill:#ff6600;fill-opacity:1;fill-rule:evenodd;stroke:#ff6600;stroke-width:1.1514796;stroke-linecap:square;stroke-linejoin:round;stroke-miterlimit:4;stroke-dasharray:none;stroke-dashoffset:0;stroke-opacity:1"
             sodipodi:nodetypes="ccscccscc" />
          <path
             sodipodi:nodetypes="ccccsccsc"
             inkscape:export-ydpi="100"
             inkscape:export-xdpi="100"
             transform="scale(0.28222222)"
             inkscape:connector-curvature="0"
             id="path4266"
             d="m 1113.9322,409.11806 c -0.1422,-0.5039 -16.7381,-128.88616 -16.6781,-129.01832 0.037,-0.0818 2.1965,-6.86305 5.754,-6.08472 l 7.2498,8.76631 10.4097,61.38513 c 5.668,33.42353 7.3742,61.09336 7.5487,62.32505 l -1.4792,2.83013 h -6.3737 c -3.5056,0 -6.3996,-0.0916 -6.4312,-0.20358 z"
             style="opacity:1;fill:#ff6600;fill-opacity:1;fill-rule:evenodd;stroke:#ff6600;stroke-width:1.1514796;stroke-linecap:square;stroke-linejoin:round;stroke-miterlimit:4;stroke-dasharray:none;stroke-dashoffset:0;stroke-opacity:1" />
          <path
             sodipodi:nodetypes="ccsccccssccsccsccc"
             inkscape:export-ydpi="100"
             inkscape:export-xdpi="100"
             transform="scale(0.28222222)"
             inkscape:connector-curvature="0"
             id="path4268"
             d="m 1136.5202,470.28645 c -1.2919,-7.26456 -18.3095,-130.72489 -17.9877,-131.04673 0.6173,-0.61728 19.0585,-2.86243 31.1575,-3.76726 14.6023,-1.09205 40.727,-1.57477 49.3633,-0.49185 3.6843,0.46196 12.9487,2.73276 19.2366,4.75746 6.2878,2.02469 8.9871,3.71193 11.2082,3.97499 l 6.2982,0.94679 -0.018,64.8786 c -0.01,34.87289 0.1978,63.30188 -0,63.30188 -0.2015,0 -2.014,-1.11201 -4.0278,-2.47114 -4.3477,-2.93418 -12.9878,-6.60218 -19.2222,-8.16038 -2.8336,-0.70825 -9.2637,-1.12982 -17.5079,-1.14789 -14.6043,-0.032 -16.5641,0.53492 -23.7889,6.88158 l -3.4303,3.01343 -12.0422,0.5394 c -6.6232,0.29667 -13.5509,0.76239 -15.3951,1.03493 -3.2957,0.48708 -3.3612,0.4488 -3.84,-2.2438 z"
             style="opacity:1;fill:#ff6600;fill-opacity:1;fill-rule:evenodd;stroke:#ff6600;stroke-width:1.1514796;stroke-linecap:square;stroke-linejoin:round;stroke-miterlimit:4;stroke-dasharray:none;stroke-dashoffset:0;stroke-opacity:1" />
          <path
             inkscape:export-ydpi="100"
             inkscape:export-xdpi="100"
             transform="scale(0.28222222)"
             inkscape:connector-curvature="0"
             id="path4272"
             d="m 467.55176,313.59499 c -1.26682,-0.24165 -6.48841,-1.84789 -11.51653,-0.92773 l -9.30318,1.70252 -21.35938,-9.58589 c -11.42525,-5.12754 -23.16272,-10.91912 -26.48812,-12.2716 -12.38158,-5.03577 -18.10741,-6.86161 -27.71119,-14.89662 -2.81615,-2.35613 -6.99991,-3.52379 -10.46666,-6.69052 -6.7021,-6.12209 -9.87639,-9.04252 -12.57014,-12.62073 -1.18331,-1.57183 -4.17692,-5.24349 -6.65247,-8.15926 -2.47555,-2.91576 -8.24273,-9.26616 -8.24273,-9.43364 0,-0.16749 6.82909,2.75652 8.49179,3.41995 18.3737,7.33117 32.99056,11.22506 63.26474,17.77193 29.55284,6.39088 48.31735,7.30321 110.77923,5.38608 17.3123,-0.53137 61.39013,-3.19395 111.42266,-3.48792 94.01099,-0.55239 105.9517,-1.67214 121.21118,-4.2989 14.55659,-2.50576 28.56514,-4.44703 48.65719,-2.79145 11.65293,0.9602 19.59356,5.68682 42.89943,5.85901 24.86617,0.18372 29.82309,-0.18543 33.27334,0.62752 2.24112,0.52806 9.21855,1.39238 14.26163,2.09484 8.04285,1.1203 9.48694,1.36104 17.56837,0.94247 5.06728,-0.26245 13.93314,-2.87464 19.53854,-1.17678 l 9.4094,0.15513 5.37115,-3.02923 c 4.4326,-2.4999 8.19159,-2.39189 9.77316,-3.52815 2.77076,-1.99059 8.17515,-3.98072 8.55082,-3.58456 0.34636,0.36522 -4.97298,53.63189 -5.38608,54.045 -1.08624,1.0862 -14.1461,-0.5327 -29.4411,-3.64951 -3.80046,-0.77446 -10.92631,-1.79342 -15.83523,-2.26435 -4.90893,-0.47094 -13.71908,-1.48766 -19.57811,-2.25939 -25.41971,-3.34816 -48.85034,-3.68474 -102.49717,-1.47236 -8.07597,0.33305 -22.19812,0.87581 -31.38255,1.20614 -28.8493,1.0376 -43.26929,2.38889 -79.75201,7.47349 -21.16956,2.9504 -32.47116,4.10954 -50.67275,5.19721 -12.28882,0.73434 -151.99448,0.93837 -155.61723,0.2473 z"
             style="opacity:1;fill:#214478;fill-opacity:1;fill-rule:evenodd;stroke:#214478;stroke-width:0.81421906;stroke-linecap:square;stroke-linejoin:round;stroke-miterlimit:4;stroke-dasharray:none;stroke-dashoffset:0;stroke-opacity:1"
             sodipodi:nodetypes="cscscssccscsssssscssscscccscsssssc" />
          <path
             inkscape:export-ydpi="100"
             inkscape:export-xdpi="100"
             transform="scale(0.28222222)"
             inkscape:connector-curvature="0"
             id="path4274"
             d="m 436.7324,267.30756 c -13.56703,-1.25028 -15.66283,-1.60752 -38.27407,-6.52393 -22.88611,-4.97618 -34.79443,-8.31528 -50.59054,-14.18563 -13.11311,-4.87326 -13.55193,-5.1123 -16.65896,-9.07515 -4.28039,-5.45939 -16.98122,-14.79003 -25.99266,-19.09546 -4.031,-1.9259 -7.08828,-5.22892 -6.54522,-5.25074 0.54305,-0.0218 16.92776,2.51554 36.03456,6.30978 l 34.84367,6.91928 24.83744,0.40823 c 24.61512,0.40457 25.08525,0.38076 52.52505,-2.66082 l 27.68763,-3.06904 47.23184,0.23732 c 25.97751,0.13053 53.828,0.28237 61.88999,0.33743 8.06199,0.055 33.89698,-0.3789 57.41111,-0.96435 33.87734,-0.84347 46.72585,-0.86134 61.88999,-0.0861 28.76422,1.47062 46.35648,0.32232 102.19992,-6.67092 37.59979,-4.70859 47.03232,-5.64718 53.74657,-5.34806 9.93316,0.44253 34.63735,-1.94749 49.55149,-4.79388 18.40204,-3.51206 33.32704,-4.86274 43.21813,-3.91116 4.72792,0.45485 11.7839,-0.0436 13.51324,1.25394 0.43821,0.32878 -3.83078,27.22757 -5.62603,46.1818 0,0 -2.33105,3.28705 -2.40115,4.69413 -0.0963,1.93319 -0.58408,2.67293 -1.99616,3.02734 -1.02778,0.25796 -4.23425,2.00514 -7.12549,3.88262 -2.89124,1.87748 -7.49302,4.43367 -10.22617,5.68041 -4.21278,1.92168 -5.6625,2.19526 -9.52198,1.79693 -2.50393,-0.25843 -10.41202,-0.02 -17.57353,0.52987 -13.87282,1.06514 -19.73769,0.67407 -35.93268,-2.39601 -6.43934,-1.2207 -12.44607,-1.48146 -35.83105,-1.55544 -18.29012,-0.0579 -33.35237,-0.54592 -43.16012,-1.39848 -18.53566,-1.61126 -36.42057,-1.15898 -49.62035,1.25481 -13.41269,2.45272 -42.59243,3.283 -116.50542,3.31504 -34.26344,0.0149 -81.35276,0.56302 -104.64294,1.21815 -50.45133,1.41914 -72.45191,1.40372 -88.35611,-0.062 z"
             style="opacity:1;fill:#808000;fill-opacity:1;fill-rule:evenodd;stroke:#808000;stroke-width:1.1514796;stroke-linecap:square;stroke-linejoin:round;stroke-miterlimit:4;stroke-dasharray:none;stroke-dashoffset:0;stroke-opacity:1"
             sodipodi:nodetypes="csscscscsscscscssssscccssccscsssscc" />
          <path
             inkscape:export-ydpi="100"
             inkscape:export-xdpi="100"
             transform="scale(0.28222222)"
             inkscape:connector-curvature="0"
             id="path4276"
             d="m -68.498626,233.83615 c 0,-6.85876 4.129677,-4.94417 11.590252,-4.3668 l 10.17906,-0.18451 9.466725,-1.46659 23.514125,-1.74003 c 23.932142,-1.77097 46.103704,-3.25065 46.895584,-3.1297 0.891314,0.13613 -4.804324,3.33873 -9.859665,4.44454 -8.231147,1.80049 -10.74393,3.01833 -19.9351677,5.37432 -4.7588111,1.21983 -11.8862491,3.05795 -15.4656213,3.91061 -14.943235,3.55968 -18.716641,5.69405 -28.845887,9.8091 -4.081178,1.65799 -27.185272,4.87611 -27.539405,5.08928 -0.0979,0.0589 -0.08344,-9.81628 0,-13.89397 z"
             style="opacity:1;fill:#808000;fill-opacity:1;fill-rule:evenodd;stroke:#808000;stroke-width:0.2878699;stroke-linecap:square;stroke-linejoin:round;stroke-miterlimit:4;stroke-dasharray:none;stroke-dashoffset:0;stroke-opacity:1"
             sodipodi:nodetypes="ccccscssccccc" />
          <path
             inkscape:export-ydpi="100"
             inkscape:export-xdpi="100"
             transform="scale(0.28222222)"
             inkscape:connector-curvature="0"
             id="path4278"
             d="m 955.13454,280.45268 c 0.0387,-3.94501 1.12898,-35.61317 4.49101,-33.13258 0.3431,-0.34311 34.48902,-6.12582 34.7238,-5.89104 0.17737,0.17738 0.19037,30.83802 0.19985,35.84686 l 0.007,3.94527 -4.17474,-0.4689 c -6.40321,-0.71919 -14.28033,-0.29736 -23.46494,1.25658 -4.59222,0.77696 -8.80295,1.55654 -9.35719,1.73241 -0.84177,0.26712 -4.31414,3.987 -4.29612,2.15082 z"
             style="opacity:1;fill:#214478;fill-opacity:1;fill-rule:evenodd;stroke:#214478;stroke-width:0.81421906;stroke-linecap:square;stroke-linejoin:round;stroke-miterlimit:4;stroke-dasharray:none;stroke-dashoffset:0;stroke-opacity:1"
             sodipodi:nodetypes="cccccssccc" />
          <path
             inkscape:export-ydpi="100"
             inkscape:export-xdpi="100"
             transform="scale(0.28222222)"
             inkscape:connector-curvature="0"
             id="path4280"
             d="m 993.49106,268.77639 c -0.20861,-6.75724 -1.40979,-13.28236 -1.61391,-18.93239 l 2.4722,-8.41494 6.24665,1.63597 c 4.2526,2.13702 7.3871,2.62542 15.1022,3.05987 10.6201,0.59803 19.916,-2.81699 33.0456,-4.72755 l 7.2574,-3.01182 -0.034,4.32174 c -0.1769,1.32433 -0.7418,9.66328 -1.2552,18.53102 -0.5135,8.86773 -1.1554,16.64139 -1.4264,17.2748 -0.6104,0.57888 -3.4191,0.55157 -3.5349,0.56598 -1.5044,0.14232 -7.4936,0.18183 -13.5893,1.65478 -13.2389,3.19904 -29.9551,6.4871 -35.6145,7.00534 l -4.08641,0.3742 -3.68929,-14.30049 z"
             style="opacity:1;fill:#214478;fill-opacity:1;fill-rule:evenodd;stroke:#214478;stroke-width:0.81421906;stroke-linecap:square;stroke-linejoin:round;stroke-miterlimit:4;stroke-dasharray:none;stroke-dashoffset:0;stroke-opacity:1"
             sodipodi:nodetypes="ccccssccccccsccc" />
          <path
             inkscape:export-ydpi="100"
             inkscape:export-xdpi="100"
             transform="scale(0.28222222)"
             inkscape:connector-curvature="0"
             id="path4284"
             d="m 957.13758,247.98435 c 0.0812,-0.57886 3.28011,-15.58359 4.38244,-29.28107 1.10233,-13.69748 2.0795,-25.57026 2.17151,-26.38395 l 0.16727,-1.47945 0.55805,-4.7582 c 0.38316,-3.26696 5.02865,-0.0589 7.47648,-0.56947 3.30516,-0.68947 8.01433,0.68046 12.65619,0.56365 3.13394,-0.0789 4.20909,0.034 5.98008,1.33727 1.19621,0.88029 2.47048,2.87242 2.74367,3.07244 0.45245,0.33126 1.46643,3.18522 2.15413,24.88119 0.41522,13.10004 -1.15389,25.93553 -1.21707,25.99871 -0.0632,0.0632 -8.23867,0.77482 -17.33576,2.44397 -9.0971,1.66916 -16.97243,3.44787 -17.24902,3.51066 -0.42685,0.0969 -2.61322,1.55757 -2.48797,0.66425 z"
             style="opacity:1;fill:#808000;fill-opacity:1;fill-rule:evenodd;stroke:#808000;stroke-width:0.40710953;stroke-linecap:square;stroke-linejoin:round;stroke-miterlimit:4;stroke-dasharray:none;stroke-dashoffset:0;stroke-opacity:1"
             sodipodi:nodetypes="csccscssccsscc" />
          <path
             inkscape:export-ydpi="100"
             inkscape:export-xdpi="100"
             transform="scale(0.28222222)"
             inkscape:connector-curvature="0"
             id="path4286"
             d="m 1014.0663,246.72193 c -3.0889,-0.12885 -7.5668,-0.65872 -9.6451,-1.14131 -1.7288,-0.40143 -10.02846,-3.73732 -10.07185,-4.15156 -0.0543,-0.51855 -1.03856,-49.36893 -1.00261,-49.43202 0.0233,-0.0408 1.26131,0.56452 2.75121,1.34525 7.32525,3.8385 12.04285,4.96629 24.21825,5.78958 6.3631,0.43026 10.3614,0.0829 16.6392,-1.44538 2.6128,-0.63609 5.9166,-1.29543 7.3418,-1.4652 2.4777,-0.29516 14.6644,-0.32846 15.2269,-0.31363 0.068,0.50656 -0.5991,9.83225 -1.3518,21.38311 -1.1506,17.65884 -1.9079,20.37413 -1.9814,21.68397 -0.8469,0.35766 -14.9398,4.773 -18.8036,5.613 -6.4321,1.39834 -15.4925,2.43444 -19.8661,2.27176 -0.7917,-0.0295 -2.3465,-0.0914 -3.4549,-0.13762 z"
             style="opacity:1;fill:#808000;fill-opacity:1;fill-rule:evenodd;stroke:#808000;stroke-width:0.40710953;stroke-linecap:square;stroke-linejoin:round;stroke-miterlimit:4;stroke-dasharray:none;stroke-dashoffset:0;stroke-opacity:1"
             sodipodi:nodetypes="cccccsccccccccc" />
          <path
             sodipodi:nodetypes="cccccccc"
             inkscape:export-ydpi="100"
             inkscape:export-xdpi="100"
             transform="scale(0.28222222)"
             inkscape:connector-curvature="0"
             id="path4288"
             d="m 1102.9351,281.78845 c -5.9764,-1.264 -5.8028,-0.54288 -6.0168,-1.22271 -0.2955,-0.9383 -12.8945,-91.58254 -12.7389,-91.73812 0.173,-0.17304 13.796,0.39488 13.9924,0.5913 0.091,0.0913 2.8026,20.41865 6.0253,45.17198 3.2226,24.75333 5.9082,45.36235 5.9679,45.79782 0.062,0.45107 0.2694,2.40931 0.093,2.39261 -0.1705,-0.0161 -3.8426,-0.25683 -7.3228,-0.99288 z"
             style="opacity:1;fill:#00d455;fill-opacity:1;fill-rule:evenodd;stroke:#00d455;stroke-width:0.40710953;stroke-linecap:square;stroke-linejoin:round;stroke-miterlimit:4;stroke-dasharray:none;stroke-dashoffset:0;stroke-opacity:1" />
          <path
             sodipodi:nodetypes="sscscssscccscccscccsccs"
             inkscape:export-ydpi="100"
             inkscape:export-xdpi="100"
             transform="scale(0.28222222)"
             inkscape:connector-curvature="0"
             id="path4290"
             d="m 1229.4981,343.71306 c -1.8427,-0.43022 -5.6647,-1.57687 -8.4934,-2.54812 -7.8767,-2.70451 -15.4168,-4.83999 -19.3948,-5.49295 -1.9815,-0.32524 -6.6398,-0.74394 -10.3649,-0.93162 -8.4833,-0.42741 -29.6699,-0.18577 -39.4441,0.44987 -6.9774,0.45375 -22.0488,1.99836 -29.1513,2.98758 -2.019,0.2812 -3.6709,0.39522 -3.6709,0.25338 0,-0.14185 -6.042,-30.12677 -10.7993,-66.63315 -4.7573,-36.50639 -7.9876,-67.13221 -7.9398,-67.17995 0.048,-0.0478 3.6437,0.0263 5.9383,0.16443 2.2947,0.13819 9.2347,0.17091 9.2347,0.17091 12.7805,0.67394 17.9541,0.0267 32.4464,2.59629 l 15.9155,1.1807 10.5815,-0.19579 7.7964,0.20143 12.0591,1.79061 c 4.9675,0.73761 11.4999,1.7379 16.8327,2.70353 9.0765,1.64347 10.0371,1.52159 17.2661,1.91644 4.2482,0.23049 7.8717,0.49937 7.8717,0.49937 0,0 -0.023,30.0626 -0.023,65.13765 v 63.77281 l -1.6555,-0.0306 c -0.9106,-0.0168 -3.1632,-0.3826 -5.0059,-0.81282 z"
             style="opacity:1;fill:#00d455;fill-opacity:1;fill-rule:evenodd;stroke:#00d455;stroke-width:0.40710953;stroke-linecap:square;stroke-linejoin:round;stroke-miterlimit:4;stroke-dasharray:none;stroke-dashoffset:0;stroke-opacity:1" />
          <path
             sodipodi:nodetypes="cccccccccccccccccccssscccsccccc"
             inkscape:export-ydpi="100"
             inkscape:export-xdpi="100"
             transform="scale(0.28222222)"
             inkscape:connector-curvature="0"
             id="path4292"
             d="m 1071.915,185.02144 c -5.9878,-0.27471 -10.9001,-0.51265 -10.9162,-0.52875 -0.016,-0.0161 -0.6866,-2.7549 -0.4636,-6.16598 -0.5035,-1.96985 0.077,-6.18038 0.077,-6.18038 -0.017,0.056 0.033,0.24777 -0,0.90561 l -0.068,1.19606 -1.7918,1.71997 c -3.0236,6.1e-4 -3.2055,0.69685 -8.6185,2.47161 -4.1427,1.35826 -9.2329,2.83486 -12.6004,3.3241 -2.0243,0.2941 -2.0475,0.82397 -5.955,0.92665 -2.1554,0.0566 -5.7664,0.5386 -6.7182,0.59243 -1.942,0.10985 -4.4656,-1.09106 -5.344,-1.39893 -0.3079,-0.10794 -3.0103,-0.69118 -3.7661,-1.05679 -0.7559,-0.36562 -1.8885,-1.57542 -3.73,-2.44915 l -3.2269,-2.18272 -3.2371,0.10937 -4.4773,-1.32141 -4.01415,0.0641 c -2.36887,-0.10185 -5.54909,-1.11952 -5.57434,-1.14476 -0.0673,-0.0673 -1.04311,-17.46151 -0.97986,-17.52476 0.0295,-0.0295 8.52785,0.94546 16.83265,1.92722 8.3048,0.98176 24.6275,2.8397 36.2726,4.12877 l 21.1729,2.34375 8.2961,1.64671 c 4.5628,0.9057 8.3056,1.65275 8.3171,1.66012 0.012,0.007 0.504,3.79063 1.0942,8.40724 0.5902,4.6166 1.0981,8.5427 1.1287,8.72465 l 0.056,0.33083 -0.4372,-0.013 c -0.2405,-0.007 -5.3363,-0.23781 -11.3241,-0.51253 z"
             style="opacity:1;fill:#00d455;fill-opacity:1;fill-rule:evenodd;stroke:#00d455;stroke-width:0.14393495;stroke-linecap:square;stroke-linejoin:round;stroke-miterlimit:4;stroke-dasharray:none;stroke-dashoffset:0;stroke-opacity:1" />
          <path
             inkscape:export-ydpi="100"
             inkscape:export-xdpi="100"
             transform="scale(0.28222222)"
             inkscape:connector-curvature="0"
             id="path4294"
             d="m 978.26073,171.32439 c -7.05424,-0.53089 -12.83565,-0.97417 -12.84758,-0.98505 -0.0119,-0.0109 0.2884,-3.79672 0.66738,-8.41296 l 0.68907,-8.39318 0.24876,0.021 c 0.37391,0.0316 23.96329,2.80749 23.98675,2.8227 0.0112,0.007 0.1125,3.012 0.22519,6.67725 0.1127,3.66526 0.23255,7.24814 0.26633,7.96196 l 0.0614,1.29786 -0.23572,-0.0122 c -0.12965,-0.007 -6.00737,-0.44652 -13.06161,-0.97742 z"
             style="opacity:1;fill:#00d455;fill-opacity:1;fill-rule:evenodd;stroke:#00d455;stroke-width:0.14393495;stroke-linecap:square;stroke-linejoin:round;stroke-miterlimit:4;stroke-dasharray:none;stroke-dashoffset:0;stroke-opacity:1" />
          <path
             inkscape:export-ydpi="100"
             inkscape:export-xdpi="100"
             transform="scale(0.28222222)"
             inkscape:connector-curvature="0"
             id="path4296"
             d="m -68.498626,165.97483 v -4.79329 l 224.223476,1.0053 210.30382,-0.002 113.6007,-4.46637 c 212.76653,-8.36521 312.05765,-11.67584 381.1759,-12.70941 l 65.61838,-0.98124 9.70826,3.71847 c 8.05514,3.0853 11.35657,3.89349 19.38842,4.74628 l 11.24927,1.04063 -0.56117,7.49257 c -0.28535,4.02028 -1.33694,8.08431 -1.31686,9.41123 l 0.054,3.56648 -5.49448,-0.40158 c -4.24198,-0.45009 -3.63452,1.00467 -9.74306,2.86647 -6.40057,1.95081 -10.65303,2.2127 -18.83146,2.06718 -5.15072,-0.0916 -14.31198,-1.15854 -19.23875,-2.0518 -25.47033,-4.61798 -85.60358,-10.50067 -131.10917,-13.29184 -7.39015,-0.45329 -36.72191,-1.49886 -65.18167,-2.00442 -54.09361,-0.96092 -69.47149,0.98488 -134.6377,4.52984 -11.86903,0.64566 -35.20013,2.44114 -54.45931,3.35183 -36.51898,1.72683 -72.58134,3.82707 -111.97203,6.52117 -52.02254,3.55805 -70.74861,1.51952 -114.00754,-1.72307 -19.0372,-1.42698 -53.93978,-3.661 -139.04873,-1.87049 -85.503804,1.79882 -170.4154413,5.91715 -206.639277,10.02231 l -23.080999,12.38063 v -22.98533 z"
             style="opacity:1;fill:#00d455;fill-opacity:1;fill-rule:evenodd;stroke:#00d455;stroke-width:1.1514796;stroke-linecap:square;stroke-linejoin:round;stroke-miterlimit:4;stroke-dasharray:none;stroke-dashoffset:0;stroke-opacity:1"
             sodipodi:nodetypes="ccccsscssccsccscsssssssssccc" />
          <path
             inkscape:export-ydpi="100"
             inkscape:export-xdpi="100"
             transform="scale(0.28222222)"
             inkscape:connector-curvature="0"
             id="path4298"
             d="m 1000.6884,195.6425 c -2.07093,-1.02214 -7.25059,-3.50573 -7.41513,-5.15693 -0.0803,-0.0759 -0.14682,-1.60334 -0.34632,-7.95312 -0.1358,-4.32257 -0.23683,-7.86744 -0.2245,-7.87749 0.0123,-0.0101 1.90105,0.0597 4.19716,0.15494 l 4.17479,0.17323 3.8572,0.60602 3.8572,0.60602 1.1453,0.54962 c 2.0262,0.97238 5.3874,2.56366 5.5398,2.62265 0.081,0.0315 0.8294,0.3844 1.6624,0.78425 2.3779,1.1415 3.0821,1.25635 6.5252,1.06416 1.1558,-0.0645 3.2189,-0.13605 4.5847,-0.15896 6.1128,-0.10258 8.3509,-0.39529 14.6476,-1.91571 2.8178,-0.6804 3.4528,-0.86328 6.586,-1.89663 3.1232,-1.03008 4.1185,-1.32305 5.5499,-1.63368 1.0073,-0.2186 1.0978,-0.22572 3.2537,-0.25605 l 2.2176,-0.0312 -0.042,0.42016 c -0.023,0.23109 0.6163,4.54017 0.3015,9.48869 -0.6587,3.31302 -0.4959,7.39593 -1.0798,10.65738 -0.8716,-0.0814 -2.1034,0.169 -2.9926,0.0725 -2.8093,-0.24021 -7.7833,-0.25651 -11.0415,0.0256 -2.6678,0.23099 -3.8769,0.33017 -7.9635,1.36683 -3.9439,1.00046 -6.9879,1.89049 -9.2555,2.08082 -9.2638,-0.55218 -15.0839,-0.0455 -27.7392,-3.7931 z"
             style="opacity:1;fill:#87aade;fill-opacity:1;fill-rule:evenodd;stroke:#87aade;stroke-width:0.10177738;stroke-linecap:square;stroke-linejoin:round;stroke-miterlimit:4;stroke-dasharray:none;stroke-dashoffset:0;stroke-opacity:1"
             sodipodi:nodetypes="ccccccccccccccccsccccccscc" />
          <path
             sodipodi:nodetypes="ccscccccccccccccc"
             inkscape:export-ydpi="100"
             inkscape:export-xdpi="100"
             transform="scale(0.28222222)"
             inkscape:connector-curvature="0"
             id="path4300"
             d="m 990.71664,187.60957 c -1.36421,-0.88925 -3.88237,-0.84907 -3.96312,-0.86789 -0.0807,-0.0188 -1.28313,0.25349 -2.882,0.15716 l -2.9511,-0.1778 -3.5562,-0.15937 -3.23234,0.11752 -3.48205,0.21983 -2.29453,-0.42624 -3.42353,0.19833 c -1.2298,0.81975 -1.06353,2.76754 -1.08192,2.74914 -0.0361,-0.0362 1.52255,-19.04717 1.5654,-19.09355 0.0405,-0.0438 26.04905,1.87337 26.09972,1.92404 0.0188,0.99536 0.37311,1.37858 0.48979,2.25026 0.33029,2.80934 -0.22533,5.55276 -0.1509,7.88903 0.13057,4.09737 0.22265,7.49025 0.20462,7.53973 -0.018,0.0495 -0.0698,0.0877 -0.11505,0.0849 -1.32258,-0.85783 -0.13691,-1.74924 -1.22679,-2.40509 z"
             style="opacity:1;fill:#87aade;fill-opacity:1;fill-rule:evenodd;stroke:#87aade;stroke-width:0.10177738;stroke-linecap:square;stroke-linejoin:round;stroke-miterlimit:4;stroke-dasharray:none;stroke-dashoffset:0;stroke-opacity:1" />
          <path
             inkscape:export-ydpi="100"
             inkscape:export-xdpi="100"
             transform="scale(0.28222222)"
             inkscape:connector-curvature="0"
             id="path4302"
             d="m -68.498626,194.39971 c 0,-26.50302 246.230596,-21.07253 311.610216,-22.01706 30.96791,-0.4317 39.0363,-0.27861 59.44696,1.12799 44.7853,3.08635 54.33721,3.02579 107.49315,-0.68161 33.72305,-2.35204 73.92269,-4.72195 103.8286,-6.12106 14.55636,-0.681 40.57459,-1.96606 57.81828,-2.8557 72.40494,-3.7355 87.37338,-4.18874 121.33696,-3.67404 70.34954,1.06611 88.38632,1.8906 143.73136,6.57016 16.47552,1.39305 66.57596,7.77147 76.54815,9.74555 3.5831,0.7093 10.17927,1.49991 14.65816,1.75689 7.39202,0.42414 9.00849,0.23389 17.51836,-2.06189 7.45514,-2.01122 10.26918,-2.42322 13.74203,-2.01192 l 5.44664,0.60952 -0.0626,5.37192 c -0.29569,3.85 -0.85966,9.74199 -1.12978,12.54546 l -0.97918,6.68335 -10.21833,-0.55367 c -4.97642,-0.26964 -9.65145,-0.17397 -10.14005,-0.31928 -4.21915,0.14287 -20.38906,3.73367 -34.2301,6.2159 -19.01888,3.41082 -37.79191,3.45353 -47.33372,2.87899 -6.55619,-0.39477 -14.79429,0.69106 -53.44117,5.53545 -55.30315,6.93226 -76.12834,8.32408 -103.72683,6.90549 -10.5175,-0.54062 -28.29933,-0.98126 -44.68705,-0.67494 -15.00426,0.28045 -42.04038,0.79473 -59.9559,1.14282 -22.48348,0.43686 -39.38457,1.6064 -54.56091,0.91878 -31.12223,-1.41011 -65.9349,-1.51318 -97.61928,2.01782 -21.76578,2.42564 -25.7033,3.42156 -48.96228,2.57305 l -28.08387,0.37803 -36.85997,-7.86409 c -21.84566,-4.66078 -47.96475,-7.71423 -57.81828,-9.10964 -9.85354,-1.39541 -25.08907,-3.39307 -33.18425,-4.69404 l -14.31604,-2.30071 -23.85652,0.0678 c -22.22662,0.0632 -25.60914,1.96605 -50.79499,5.31451 -27.89783,3.70903 -34.08675,4.83833 -47.13434,8.67469 -7.527422,2.21327 -22.864895,4.19469 -106.7758012,9.90819 -17.0197478,1.15887 -35.9735888,0.83495 -42.2440218,1.71771 -6.270433,0.88276 -16.020752,1.88797 -25.063593,2.59784 0,0 -0.238415,-10.09189 0,-22.0729 z m 39.413471,13.49064 c 3.018782,-0.8633 9.430559,-1.96386 14.248393,-2.4457 4.817834,-0.48184 13.89005338,-1.42062 20.1604867,-2.08619 6.2704333,-0.66557 14.5156463,-1.22041 18.3226953,-1.23299 3.807048,-0.0126 9.487084,-0.57435 12.622301,-1.24839 23.019852,-4.94908 54.915103,-7.95802 107.085969,-10.10228 10.97326,-0.45101 28.01337,-1.38006 37.86691,-2.06456 9.85353,-0.6845 26.60097,-1.5178 37.21652,-1.85178 20.05834,-0.63106 21.65546,-0.95185 20.64166,-4.14605 -1.04549,-3.29406 -14.41346,-3.67521 -49.30759,-1.40586 -10.07749,0.65539 -26.93436,1.59758 -37.45974,2.09375 -36.8256,1.73599 -47.69585,2.46097 -54.96808,3.66607 -4.030993,0.66798 -10.81039,1.22158 -15.065327,1.23021 -11.092258,0.0225 -31.012773,1.46382 -39.088415,2.82818 -3.807049,0.64319 -14.250985,1.93138 -23.208747,2.86265 -8.957762,0.93126 -21.9668757,2.60312 -28.9091412,3.71523 -6.9422658,1.11211 -15.9269248,2.54501 -19.9659088,3.18422 -12.841652,2.03233 -16.292348,3.95786 -12.99745,7.25276 1.7553,1.7553 6.090972,1.6709 12.805464,-0.24927 z M 539.1249,207.03692 c 95.18586,-1.4512 171.16866,-3.61967 188.52017,-5.38017 6.71833,-0.68165 26.32361,-1.54943 43.5673,-1.9284 22.7927,-0.50092 35.79864,-1.17751 47.63901,-2.47823 13.33412,-1.46482 19.31334,-1.71799 32.98085,-1.39644 23.07682,0.54292 66.2249,-1.27382 70.25597,-2.9581 4.78247,-1.99826 3.90127,-4.97307 -2.42153,-8.17484 -3.02707,-1.53282 -5.58386,-1.61024 -17.3077,-0.52403 -28.02761,2.59673 -46.60813,3.32259 -81.47174,3.18275 -35.9036,-0.14401 -52.55983,0.45572 -127.03735,4.57411 -46.77172,2.58634 -67.25312,2.93897 -114.41505,1.96992 -33.96413,-0.69787 -61.39896,-0.70649 -107.49314,-0.0337 -61.57197,0.89863 -100.42348,0.39084 -117.97841,-1.54198 -4.08664,-0.44995 -14.20966,-2.09312 -22.49559,-3.6515 -13.12359,-2.46823 -27.94952,-4.60308 -40.8379,-5.88044 -4.32239,-0.42838 -7.42078,1.1142 -9.18771,4.57426 -3.32818,6.51732 3.50669,8.60819 34.94657,10.69057 7.15866,0.47415 15.5871,1.21086 18.72986,1.63714 8.98745,1.21904 90.97288,6.40276 119.31483,7.54396 13.52411,0.54455 38.59157,0.47801 84.69156,-0.22483 z"
             style="opacity:1;fill:#87aade;fill-opacity:1;fill-rule:evenodd;stroke:#87aade;stroke-width:1.1514796;stroke-linecap:square;stroke-linejoin:round;stroke-miterlimit:4;stroke-dasharray:none;stroke-dashoffset:0;stroke-opacity:1"
             sodipodi:nodetypes="ccssssssccccccccscssssssssscssscsssssccccssccssscsscssssssccssssccssssscsccssscc" />
          <path
             sodipodi:nodetypes="scsccccscssssssscccscssssss"
             inkscape:export-ydpi="100"
             inkscape:export-xdpi="100"
             transform="scale(0.28222222)"
             inkscape:connector-curvature="0"
             id="path4304"
             d="m 446.06681,206.18349 c -44.09589,-2.64333 -101.09222,-6.05492 -109.51512,-7.1958 -3.48375,-0.47187 -22.85642,-1.84362 -32.09868,-2.48429 -21.99299,-1.52454 -22.18772,-3.99425 -23.10743,-6.89202 -0.7484,-2.358 4.87024,-6.41059 8.24026,-6.39818 0.95012,0.003 3.30014,0.37727 5.22229,0.83061 1.92214,0.45335 6.83762,1.11213 10.92329,1.46396 4.08567,0.35184 11.45272,1.38349 16.37122,2.29257 4.9185,0.90908 15.24222,2.4155 19.64289,3.23481 23.15674,3.16719 42.2658,4.56611 129.55162,3.58516 53.81534,-0.6048 76.36507,-0.71352 102.8569,-0.1714 54.24634,1.11009 67.20956,0.99589 114.91165,-1.54723 29.84623,-1.59118 77.57794,-3.88682 95.19128,-4.61492 8.07597,-0.33384 30.25244,-0.16468 48.62132,-0.0753 28.71193,0.13969 34.66352,-1.08834 42.4313,-1.32025 5.42062,-0.16183 14.9283,-1.11018 20.94569,-1.44446 6.01739,-0.33428 13.42006,-1.20755 15.92266,-1.37659 5.32548,-0.3597 8.66831,1.66129 11.46498,4.01947 2.44542,2.06204 0.84693,3.8365 -3.59316,5.01138 -4.44135,1.17519 -41.22239,2.44597 -69.03285,1.83808 -19.07951,-0.41705 -19.58179,0.55577 -32.57041,1.97791 -7.75926,0.84976 -17.19543,1.23084 -18.46225,1.41088 -1.26682,0.18004 -14.76283,0.64272 -30.91477,0.91535 -22.23587,0.37534 -32.23367,1.14928 -41.17161,2.03605 -13.7393,1.36313 -32.70343,2.01153 -60.56977,2.48639 -10.92631,0.18619 -34.35525,1.45462 -51.93236,1.9163 -66.03232,1.7344 -128.75176,2.93393 -169.32894,0.50152 z"
             style="opacity:1;fill:#ff0000;fill-opacity:1;fill-rule:evenodd;stroke:#ff0000;stroke-width:0.81421906;stroke-linecap:square;stroke-linejoin:round;stroke-miterlimit:4;stroke-dasharray:none;stroke-dashoffset:0;stroke-opacity:1" />
          <path
             inkscape:export-ydpi="100"
             inkscape:export-xdpi="100"
             transform="scale(0.28222222)"
             inkscape:connector-curvature="0"
             id="path4306"
             d="m -41.279508,208.93919 c -0.436491,-0.52594 -1.403432,-2.84502 -1.093941,-3.13398 0.744318,-0.69492 9.549981,-6.15926 15.32411,-6.90365 2.69199,-0.34705 13.795996,-0.52742 20.4467956,-1.61961 6.65079895,-1.09218 18.1504214,-1.98779 27.4932104,-2.9504 9.342789,-0.96261 19.966793,-2.04946 23.608897,-2.66145 7.781285,-1.30752 18.935317,-3.39577 35.286804,-3.8803 6.862692,-0.20336 15.104231,-0.23032 19.121418,-0.85572 10.535994,-1.64026 10.474724,-0.83319 25.877454,-1.44326 18.62331,-0.73763 45.42131,-2.40693 61.79962,-3.47064 34.81121,-2.26088 45.04054,-1.98623 50.44782,-0.41493 2.44398,0.7102 2.34729,3.58139 0.0424,4.19783 -0.83316,0.22282 -9.92278,0.86524 -20.94542,1.07938 -11.02263,0.21415 -25.38044,0.46671 -30.28937,0.90949 -10.61693,0.95762 -24.33681,1.74257 -44.72833,2.57229 -47.33314,1.92597 -83.712408,6.04212 -101.88421,10.22134 -4.915413,1.13047 -9.205603,1.96184 -18.714282,2.3755 -6.680916,0.29064 -14.0761863,0.99313 -16.609824,1.31485 -2.5336377,0.32172 -10.4693714,0.40201 -16.755495,1.04385 -7.191495,0.73428 -12.911239,1.41319 -16.116784,2.31447 -5.890384,1.65615 -11.210646,2.63058 -12.310833,1.30494 z"
             style="opacity:1;fill:#ff0000;fill-opacity:1;fill-rule:evenodd;stroke:#ff0000;stroke-width:0.81421906;stroke-linecap:square;stroke-linejoin:round;stroke-miterlimit:4;stroke-dasharray:none;stroke-dashoffset:0;stroke-opacity:1"
             sodipodi:nodetypes="ccscscssssccscssssssc" />
          <path
             inkscape:export-ydpi="100"
             inkscape:export-xdpi="100"
             transform="scale(0.28222222)"
             inkscape:connector-curvature="0"
             id="path4310"
             d="m 314.86381,291.26417 c -12.47347,-5.23555 -13.30593,-7.89057 -21.00991,-12.12517 -4.26367,-2.34359 -5.45983,-1.96564 -9.09905,-3.36758 -3.81386,-1.46921 -6.42718,-1.73783 -7.548,-2.86147 -1.69525,-1.6995 -2.25369,-7.29583 -1.63063,-8.47615 0.49139,-0.93088 3.30476,-2.37335 6.09845,-2.3595 3.61172,0.0179 5.70859,1.2104 11.8785,3.41539 4.47971,1.60095 5.52612,1.82495 9.91897,2.46105 3.63898,0.52693 6.35699,2.25622 7.70473,2.78745 1.28729,0.5074 2.25677,-0.0252 7.39372,2.8116 4.85621,2.68177 4.28463,4.90855 4.27961,5.32825 -0.003,0.23752 -0.37291,3.72097 -0.82237,7.74099 l -0.81719,7.30913 z"
             style="opacity:1;fill:#000000;fill-opacity:1;fill-rule:evenodd;stroke:#000000;stroke-width:0.20355476;stroke-linecap:square;stroke-linejoin:round;stroke-miterlimit:4;stroke-dasharray:none;stroke-dashoffset:0;stroke-opacity:1"
             sodipodi:nodetypes="ssccccsccccccs" />
          <path
             inkscape:export-ydpi="100"
             inkscape:export-xdpi="100"
             transform="scale(0.28222222)"
             inkscape:connector-curvature="0"
             id="path4312"
             d="m 358.06762,270.57992 c -7.10972,-2.31564 -8.88489,-2.35681 -13.4893,-3.35422 -4.27081,-0.92515 -6.38303,-2.59577 -9.03323,-4.40249 -0.50387,-0.3435 -3.26184,-2.27196 -5.24934,-4.03923 -3.33822,-2.96831 -4.03158,-3.47653 -8.22479,-7.88886 -6.95069,-7.31391 -7.55967,-8.94485 -8.68347,-11.42921 -1.3521,-2.98905 -2.45784,-6.13915 -2.34344,-9.20308 0.0393,-1.05242 0.30725,-2.74872 0.46673,-3.1937 0.66814,-2.07355 0.54062,-2.50039 1.61736,-3.6288 4.83599,2.05088 7.78133,5.14235 8.9117,6.23557 l 5.90236,2.99685 4.6238,6.92538 c 2.89927,3.47654 6.14752,7.56633 7.65808,9.33464 4.55576,5.33315 6.096,6.90563 7.30477,8.63574 1.42678,2.04214 2.37632,3.2382 3.37024,4.0975 1.94429,1.68097 4.43971,4.6876 9.11939,7.16843 1.00044,0.53036 0.88678,2.5713 0.80281,2.5656 -0.084,-0.006 -1.0461,-0.26396 -2.75367,-0.82012 z"
             style="opacity:1;fill:#000000;fill-opacity:1;fill-rule:evenodd;stroke:#000000;stroke-width:0.14393495;stroke-linecap:square;stroke-linejoin:round;stroke-miterlimit:4;stroke-dasharray:none;stroke-dashoffset:0;stroke-opacity:1"
             sodipodi:nodetypes="csccsccccccccccscc" />
          <path
             sodipodi:nodetypes="csscccssccccsccccccsscccccssscccccscccccc"
             inkscape:export-ydpi="100"
             inkscape:export-xdpi="100"
             transform="scale(0.28222222)"
             inkscape:connector-curvature="0"
             id="path4314"
             d="m 1225.8171,215.21214 c -5.0163,-0.30057 -7.3423,-0.61775 -15.4977,-2.11332 -5.2775,-0.96781 -13.774,-2.34536 -18.8812,-3.06121 l -9.2858,-1.30154 h -10.3469 -10.3469 l -15.3036,-1.56893 c -11.8092,-1.21068 -18.6454,-1.7469 -29.9381,-2.34831 -8.0489,-0.42865 -15.9607,-0.40694 -15.9956,-0.43033 -0.035,-0.0234 -0.8148,-7.50551 -0.8148,-7.50551 -0.1985,-0.18233 -1.045,-7.2519 -1.045,-7.2519 0,0 -0.3939,-0.0292 -2.0334,-0.20021 -0.9105,-0.095 -4.1323,-0.38567 -6.7672,-0.45719 l -5.3815,-0.14607 -0.4986,-3.28062 c -0.2441,-1.83876 -1.148,-8.27544 -1.746,-12.98643 -1.0592,-8.34401 0.084,-4.06695 -0.5421,-4.06695 l -1.0178,-0.0854 c -0.1489,0 -3.6173,-0.003 -7.489,-0.79049 -6.3372,-1.28956 -6.2372,-1.72041 -29.305,-4.31852 -14.0934,-1.58732 -43.7978,-4.96083 -62.90458,-7.54697 l -36.36427,-4.92198 -10.97111,-2.00317 -6.91729,-4.79923 9.32075,-0.34815 c 5.49751,-0.0105 10.66452,0.28905 34.40565,1.99487 2.29611,0.16497 7.93201,0.55702 12.52423,0.87122 4.59222,0.3142 10.16334,0.70438 12.38028,0.86706 2.21693,0.16268 18.02334,1.268 35.12544,2.45627 17.102,1.18826 32.8437,2.28353 34.9815,2.43393 2.1377,0.1504 6.7371,0.4708 10.2209,0.712 10.1574,0.70326 109.0062,7.60021 113.4379,7.91487 2.2169,0.15741 9.7314,0.68206 16.6989,1.16588 6.9675,0.48383 16.2849,1.13485 20.7054,1.4467 4.4204,0.31186 8.4692,0.56702 8.9972,0.56702 h 0.9602 v 25.76824 25.76825 l -2.2313,-0.0401 c -1.2273,-0.022 -4.8874,-0.19924 -8.1336,-0.39375 z"
             style="opacity:1;fill:#ffe680;fill-opacity:1;fill-rule:evenodd;stroke:#ffe680;stroke-width:0.40710953;stroke-linecap:square;stroke-linejoin:round;stroke-miterlimit:4;stroke-dasharray:none;stroke-dashoffset:0;stroke-opacity:1" />
          <path
             sodipodi:nodetypes="ccccccccccccccccsccccccsccc"
             style="opacity:1;fill:#87aade;fill-opacity:1;fill-rule:evenodd;stroke:#87aade;stroke-width:0.10177738;stroke-linecap:square;stroke-linejoin:round;stroke-miterlimit:4;stroke-dasharray:none;stroke-dashoffset:0;stroke-opacity:1"
             d="m 1000.6884,195.6425 c -2.07093,-1.02214 -7.05975,-3.27731 -8.73195,-5.53219 0,0 -1.31302,-1.68956 -1.51252,-8.03934 -0.1358,-4.32257 0.71944,-8.25437 0.73177,-8.26442 0.0123,-0.0101 3.4278,0.90811 5.72391,1.00335 l 4.17479,0.17323 3.8572,0.60602 3.8572,0.60602 1.1453,0.54962 c 2.0262,0.97238 5.3874,2.56366 5.5398,2.62265 0.081,0.0315 0.8294,0.3844 1.6624,0.78425 2.3779,1.1415 3.0821,1.25635 6.5252,1.06416 1.1558,-0.0645 3.2189,-0.13605 4.5847,-0.15896 6.1128,-0.10258 8.3509,-0.39529 14.6476,-1.91571 2.8178,-0.6804 3.4528,-0.86328 6.586,-1.89663 3.1232,-1.03008 4.1185,-1.32305 5.5499,-1.63368 1.0073,-0.2186 0.9951,-0.2352 3.0648,-0.75214 l 2.4452,-0.61073 0.1079,1.41502 c -0.023,0.23109 0.4274,4.62093 0.1126,9.56945 -0.6587,3.31302 -0.4959,7.39593 -1.0798,10.65738 -0.8716,-0.0814 -2.1034,0.169 -2.9926,0.0725 -2.8093,-0.24021 -7.7833,-0.25651 -11.0415,0.0256 -2.6678,0.23099 -3.8769,0.33017 -7.9635,1.36683 -3.9439,1.00046 -6.9879,1.89049 -9.2555,2.08082 -9.2638,-0.55218 -15.0839,-0.0455 -27.7392,-3.7931 z"
             id="path299"
             inkscape:connector-curvature="0"
             transform="scale(0.28222222)"
             inkscape:export-xdpi="100"
             inkscape:export-ydpi="100" />
        </g>
      </g>
    </g>
  </g>
</svg>
